<?xml version="1.0" standalone="no"?>
<!DOCTYPE svg PUBLIC "-//W3C//DTD SVG 20010904//EN"
 "http://www.w3.org/TR/2001/REC-SVG-20010904/DTD/svg10.dtd">
<svg version="1.0" xmlns="http://www.w3.org/2000/svg"
 width="558.000000pt" height="558.000000pt" viewBox="0 0 558.000000 558.000000"
 preserveAspectRatio="xMidYMid meet">
<metadata>
Created by potrace 1.14, written by Peter Selinger 2001-2017
</metadata>
<g transform="translate(0.000000,558.000000) scale(0.100000,-0.100000)"
fill="#000000" stroke="none">
<path d="M0 2790 l0 -2790 2790 0 2790 0 0 2790 0 2790 -2790 0 -2790 0 0
-2790z m5307 2328 c-3 -8 -6 -5 -6 6 -1 11 2 17 5 13 3 -3 4 -12 1 -19z m-10
-40 c-3 -8 -6 -5 -6 6 -1 11 2 17 5 13 3 -3 4 -12 1 -19z m-32 -132 c-65 -242
-187 -520 -308 -704 -251 -383 -634 -702 -1087 -908 -52 -24 -98 -49 -102 -56
-3 -7 -24 -67 -45 -133 -50 -160 -137 -328 -276 -538 -212 -320 -378 -500
-589 -640 -310 -207 -642 -305 -1188 -352 -554 -47 -905 -185 -1169 -460 -202
-210 -304 -462 -327 -805 -7 -108 -8 -112 -16 -65 -15 87 -12 352 5 455 35
210 111 400 226 567 169 246 446 561 631 715 230 193 416 289 788 406 18 5 36
34 76 122 89 198 273 502 388 642 237 290 533 478 948 602 127 38 249 63 468
97 527 81 869 218 1152 462 185 160 342 394 416 622 37 112 43 93 9 -29z
m-3698 -3542 c-19 -99 -46 -237 -58 -309 -13 -71 -25 -122 -27 -113 -3 17 45
301 84 492 13 65 24 122 25 125 0 3 3 1 5 -5 3 -7 -11 -92 -29 -190z m-90
-466 c-3 -8 -6 -5 -6 6 -1 11 2 17 5 13 3 -3 4 -12 1 -19z m-1300 -740 c-3 -8
-6 -5 -6 6 -1 11 2 17 5 13 3 -3 4 -12 1 -19z"/>
<path d="M3563 3209 c-229 -87 -509 -156 -867 -214 -153 -25 -241 -44 -296
-66 -145 -55 -286 -165 -392 -304 -56 -74 -112 -164 -106 -171 3 -2 34 2 69
10 96 23 346 62 609 96 129 17 277 42 329 56 245 64 478 223 645 438 81 104
139 196 123 195 -6 -1 -58 -19 -114 -40z"/>
</g>
</svg>
