<svg id="long-helix" xmlns="http://www.w3.org/2000/svg" width="618" height="540" viewBox="0 0 618 540">
  <metadata><?xpacket begin="﻿" id="W5M0MpCehiHzreSzNTczkc9d"?>
<x:xmpmeta xmlns:x="adobe:ns:meta/" x:xmptk="Adobe XMP Core 5.6-c140 79.160451, 2017/05/06-01:08:21        ">
   <rdf:RDF xmlns:rdf="http://www.w3.org/1999/02/22-rdf-syntax-ns#">
      <rdf:Description rdf:about=""/>
   </rdf:RDF>
</x:xmpmeta>
                                                                                                    
                                                                                                    
                                                                                                    
                                                                                                    
                                                                                                    
                                                                                                    
                                                                                                    
                                                                                                    
                                                                                                    
                                                                                                    
                                                                                                    
                                                                                                    
                                                                                                    
                                                                                                    
                                                                                                    
                                                                                                    
                                                                                                    
                                                                                                    
                                                                                                    
                                                                                                    
                           
<?xpacket end="w"?></metadata>
<defs>
    <style>
      .cls-1, .cls-2 {
        fill-rule: evenodd;
      }

      .cls-2 {
        fill: #9e3946;
      }
       #long-helix-2 {
fill: white;
}
       #gene {
fill: white;
}
    </style>
  </defs>
  <g id="long-helix-2" data-name="long-helix">
    <g id="helix-bottom">
      <path id="Left_Helix" data-name="Left Helix" class="cls-1" d="M472.935,69.691c-0.221.229-17.509,84.069-41.74,121.215-18.867,28.92-40.457,62.488-114.962,67.385-111.148,7.306-94.292,95.342-94.717,94.371-0.907-2.07-11.661-42.509,13.6-76.888,46.356-63.08,73.6-70.037,146.7-78.713C447.725,189.237,461.7,104.6,472.935,69.691Z"/>
      <path id="Right_Helix" data-name="Right Helix" class="cls-1" d="M286.792,249.077c0.205-.244,1.874-28.889,23.624-67.539,16.935-30.092,36.282-65,110.308-74.761C531.156,92.216,523.81,5.54,524.3,6.481c1.04,2.006-.816,41.586-23.778,77.545C458.389,150,372.083,161.5,349.79,164.624,292.213,172.7,307.018,217.129,286.792,249.077Z"/>
    </g>
    <g id="helix-top">
      <path id="Left_Helix-2" data-name="Left Helix" class="cls-1" d="M272.992,300.792c-13.247,24.876-4.258,41.536-28.49,78.68-18.867,28.921-40.456,62.488-114.962,67.386C18.392,454.163,35.249,542.2,34.823,541.229c-0.907-2.07-11.661-42.509,13.6-76.889,46.357-63.079,73.6-70.036,146.7-78.713C261.033,377.8,270.954,300.048,272.992,300.792Z"/>
      <path id="Right_Helix-2" data-name="Right Helix" class="cls-1" d="M78.223,500.845c0.2-.243,10.2-78.735,31.948-117.385,16.935-30.093,36.282-65,110.308-74.761,110.432-14.561,103.086-101.237,103.574-100.3,1.04,2.006-.816,41.586-23.778,77.545-42.131,65.976-128.437,77.472-150.73,80.6C91.968,374.619,87.149,465.279,78.223,500.845Z"/>
    </g>
  </g>
  <g id="Lato">
    <path id="nft" class="cls-2" d="M545.426,279.06V261.423a10.2,10.2,0,0,1,2.517-1.877,6.1,6.1,0,0,1,2.849-.69,3.825,3.825,0,0,1,3.1,1.224,5.214,5.214,0,0,1,1.033,3.459V279.06h5.864V263.539a12.443,12.443,0,0,0-.534-3.744,8.348,8.348,0,0,0-1.567-2.923,6.991,6.991,0,0,0-2.576-1.9,8.718,8.718,0,0,0-3.537-.677,10.311,10.311,0,0,0-2.28.237,8.851,8.851,0,0,0-1.958.69,10.815,10.815,0,0,0-1.733,1.069,13.416,13.416,0,0,0-1.555,1.379l-0.4-1.925a1.44,1.44,0,0,0-1.5-1.07h-3.585V279.06h5.864Zm28.039,0V259.07h6.149v-4.183h-6.339v-1.616a7.439,7.439,0,0,1,.3-2.27,3.556,3.556,0,0,1,.867-1.474,3.13,3.13,0,0,1,1.389-.784,7,7,0,0,1,1.863-.226,5.116,5.116,0,0,0,1.377-.167,0.853,0.853,0,0,0,.641-0.855l0.119-2.948a10.481,10.481,0,0,0-3.134-.451,10.981,10.981,0,0,0-3.8.618,7.608,7.608,0,0,0-4.665,4.611,10.565,10.565,0,0,0-.629,3.755v1.807h-3.632v2.4a1.245,1.245,0,0,0,.415,1,2.241,2.241,0,0,0,1.1.475l2.113,0.333V279.06h5.864Zm21.178-.166a8.9,8.9,0,0,0,2.944-1.617l-1.757-2.852a2.021,2.021,0,0,0-.356-0.392,0.674,0.674,0,0,0-.428-0.131,0.814,0.814,0,0,0-.427.131q-0.215.13-.487,0.273a5.032,5.032,0,0,1-.641.274,2.76,2.76,0,0,1-.914.13,1.932,1.932,0,0,1-1.519-.641,2.592,2.592,0,0,1-.57-1.783V259.07h6.41v-4.183h-6.41v-7.678h-3.039a1.4,1.4,0,0,0-.867.262,1.176,1.176,0,0,0-.439.737l-1.235,6.655-3.917.642v2.329a1.125,1.125,0,0,0,1.163,1.236h2.47v13.62a6.89,6.89,0,0,0,1.709,4.956,6.4,6.4,0,0,0,4.867,1.794A10.962,10.962,0,0,0,594.643,278.894Z"/>
    <path id="gene" class="cls-1" d="M323.631,287.255a27.337,27.337,0,0,0-9.094,4.693,21.262,21.262,0,0,0-8.143,17.116,21.125,21.125,0,0,0,3.137,11.576,22.828,22.828,0,0,0,8.636,7.905,20.187,20.187,0,0,0-4.159,2.717,16.886,16.886,0,0,0-2.926,3.211,13.427,13.427,0,0,0-1.727,3.424,10.757,10.757,0,0,0-.564,3.352,11.513,11.513,0,0,0,1.621,6.423,11.992,11.992,0,0,0,4.3,3.953,21.259,21.259,0,0,0-8.6,5.5,12.316,12.316,0,0,0-3.1,8.54,14.327,14.327,0,0,0,1.974,7.2,18.352,18.352,0,0,0,5.957,6.106,33.378,33.378,0,0,0,10.046,4.234A56.923,56.923,0,0,0,335.3,384.8a46.819,46.819,0,0,0,14.805-2.16,35.734,35.734,0,0,0,10.962-5.7,25.11,25.11,0,0,0,6.839-8.073,20,20,0,0,0,2.362-9.348,16.028,16.028,0,0,0-2.01-8.46,14.926,14.926,0,0,0-5.287-5.206,24.967,24.967,0,0,0-7.438-2.8,66.944,66.944,0,0,0-8.53-1.239q-4.373-.354-8.531-0.354a57.992,57.992,0,0,1-7.437-.427,16.317,16.317,0,0,1-5.288-1.457,3.408,3.408,0,0,1-2.009-3.235q0-2.558,3.384-4.621a40.436,40.436,0,0,0,7.966.776,36.662,36.662,0,0,0,11.245-1.659,27.469,27.469,0,0,0,8.953-4.693,21.348,21.348,0,0,0,8.073-17.081,23.148,23.148,0,0,0-.388-4.305,22.622,22.622,0,0,0-1.093-3.882l6.486-1.2a5.022,5.022,0,0,0,2.891-1.27,3.6,3.6,0,0,0,.846-2.541v-6.494H351.3a29.785,29.785,0,0,0-7.473-2.788A40.938,40.938,0,0,0,323.631,287.255Zm29.5,79.1a8.892,8.892,0,0,1-3.349,3.171,19.9,19.9,0,0,1-5.816,2.09,40.507,40.507,0,0,1-8.389.756,41.736,41.736,0,0,1-8.108-.67,18.012,18.012,0,0,1-5.393-1.871,7.944,7.944,0,0,1-3.031-2.858,7.04,7.04,0,0,1-.952-3.564,7.907,7.907,0,0,1,1.8-5.118,15.754,15.754,0,0,1,4.758-3.846,28.8,28.8,0,0,0,6.733.776h6.768a50.646,50.646,0,0,1,6.2.361,25.03,25.03,0,0,1,5.111,1.117,8.322,8.322,0,0,1,3.455,2.126,4.985,4.985,0,0,1,1.269,3.53A7.886,7.886,0,0,1,353.135,366.358Zm-23.652-45.895a10.778,10.778,0,0,1-4.019-2.47,10.366,10.366,0,0,1-2.4-3.776,13.491,13.491,0,0,1-.811-4.729,11.357,11.357,0,0,1,3.208-8.5q3.207-3.14,9.623-3.141t9.623,3.141a11.357,11.357,0,0,1,3.208,8.5,13.72,13.72,0,0,1-.811,4.8,10.012,10.012,0,0,1-2.4,3.741,11.044,11.044,0,0,1-3.983,2.435A18.359,18.359,0,0,1,329.483,320.463ZM398.359,288.6a32.353,32.353,0,0,0-10.928,7.658,33.511,33.511,0,0,0-6.873,11.363,40.106,40.106,0,0,0-2.4,13.94,47.03,47.03,0,0,0,2.749,16.763,34.765,34.765,0,0,0,7.543,12.14,31.387,31.387,0,0,0,11.28,7.411,38.608,38.608,0,0,0,14.03,2.506,57.041,57.041,0,0,0,7.86-.565,41.085,41.085,0,0,0,7.967-1.941,36.4,36.4,0,0,0,7.508-3.67,29.039,29.039,0,0,0,6.486-5.682l-5.076-6.352a4.062,4.062,0,0,0-1.339-1.2,3.764,3.764,0,0,0-1.833-.424,6.741,6.741,0,0,0-3.349.988q-1.728.99-4.019,2.188a33.976,33.976,0,0,1-5.358,2.188,23.86,23.86,0,0,1-7.3.989q-8.6,0-13.818-5.223T395.5,325.3h44.7a5.251,5.251,0,0,0,1.974-.318,2.572,2.572,0,0,0,1.234-1.058,5.277,5.277,0,0,0,.634-2.047,25.315,25.315,0,0,0,.177-3.282,38.955,38.955,0,0,0-2.327-13.94,29.2,29.2,0,0,0-6.486-10.305,27.576,27.576,0,0,0-9.905-6.387,35.1,35.1,0,0,0-12.584-2.188A35.954,35.954,0,0,0,398.359,288.6Zm21.678,10.975a13.361,13.361,0,0,1,4.794,3.564,14.751,14.751,0,0,1,2.82,5.259,21.781,21.781,0,0,1,.917,6.387H395.856q1.2-7.9,5.5-12.21t11.914-4.306A16.318,16.318,0,0,1,420.037,299.571ZM475.8,359.318V306.947a30.307,30.307,0,0,1,7.473-5.576,18.123,18.123,0,0,1,8.46-2.047q6.133,0,9.2,3.635T504,313.229v46.089h17.413V313.229a36.922,36.922,0,0,0-1.586-11.117,24.821,24.821,0,0,0-4.653-8.681,20.757,20.757,0,0,0-7.649-5.647,25.908,25.908,0,0,0-10.5-2.011,30.58,30.58,0,0,0-6.768.7,26.256,26.256,0,0,0-5.817,2.047,32.33,32.33,0,0,0-5.146,3.176,39.683,39.683,0,0,0-4.618,4.094l-1.2-5.717a4.28,4.28,0,0,0-4.442-3.176H458.387v72.416H475.8ZM553.878,288.6a32.363,32.363,0,0,0-10.928,7.658,33.511,33.511,0,0,0-6.873,11.363,40.106,40.106,0,0,0-2.4,13.94,47.03,47.03,0,0,0,2.749,16.763,34.752,34.752,0,0,0,7.544,12.14,31.37,31.37,0,0,0,11.28,7.411,38.6,38.6,0,0,0,14.029,2.506,57.055,57.055,0,0,0,7.861-.565,41.075,41.075,0,0,0,7.966-1.941,36.378,36.378,0,0,0,7.508-3.67,29.017,29.017,0,0,0,6.486-5.682l-5.076-6.352a4.042,4.042,0,0,0-1.339-1.2,3.764,3.764,0,0,0-1.833-.424,6.741,6.741,0,0,0-3.349.988q-1.728.99-4.018,2.188a34.055,34.055,0,0,1-5.358,2.188,23.871,23.871,0,0,1-7.3.989q-8.6,0-13.818-5.223T551.023,325.3h44.7a5.248,5.248,0,0,0,1.974-.318,2.572,2.572,0,0,0,1.234-1.058,5.276,5.276,0,0,0,.635-2.047,25.518,25.518,0,0,0,.176-3.282,38.955,38.955,0,0,0-2.327-13.94,29.2,29.2,0,0,0-6.486-10.305,27.568,27.568,0,0,0-9.9-6.387,35.1,35.1,0,0,0-12.584-2.188A35.958,35.958,0,0,0,553.878,288.6Zm21.679,10.975a13.366,13.366,0,0,1,4.793,3.564,14.751,14.751,0,0,1,2.82,5.259,21.747,21.747,0,0,1,.917,6.387H551.375q1.2-7.9,5.5-12.21t11.915-4.306A16.325,16.325,0,0,1,575.557,299.571Z"/>
  </g>
</svg>
